<?xml version="1.0" encoding="UTF-8"?>
<svg width="1024" height="1024" viewBox="0 0 1024 1024" xmlns="http://www.w3.org/2000/svg">
  <!-- Black background with iOS-style rounded corners -->
  <rect width="1024" height="1024" rx="224" ry="224" fill="#000000"/>
  
  <!-- White modern brush script 'n' - centered -->
  <g fill="#FFFFFF">
    <path d="M 340 720
             Q 320 620, 340 520
             Q 360 420, 380 360
             Q 400 300, 420 320
             Q 440 340, 430 400
             Q 420 480, 420 540
             L 420 560
             Q 440 400, 500 340
             Q 560 280, 620 320
             Q 680 360, 680 460
             Q 680 560, 660 660
             Q 650 720, 680 700
             Q 700 690, 710 680
             L 700 720
             Q 660 760, 620 740
             Q 580 720, 600 620
             Q 620 520, 620 440
             Q 620 360, 580 380
             Q 540 400, 500 480
             Q 460 560, 460 620
             Q 460 680, 420 720
             Q 380 760, 340 720
             Z"/>
  </g>
</svg>
